<svg width="121" height="53" viewBox="0 0 121 53" fill="none" xmlns="http://www.w3.org/2000/svg">
<path fill-rule="evenodd" clip-rule="evenodd" d="M38.9763 12.919C35.7206 12.919 31.8205 14.0042 31.8205 18.0739C31.8205 20.3461 32.6683 21.6009 34.6014 22.9236L38.1623 25.3654C38.9763 25.9418 39.2816 26.4506 39.2816 26.9932C39.2816 28.5872 38.0267 28.8924 36.3649 28.8924C35.3476 28.8924 32.5327 28.7228 30.9387 28.5193C30.3622 28.4515 30.1926 28.6889 30.1248 29.0619L29.7517 31.0968C29.6839 31.5376 29.8196 31.7411 30.2604 31.8768C32.3292 32.4533 35.2458 32.555 36.3649 32.555C40.4007 32.555 43.8599 30.7576 43.8599 26.5184C43.8599 25.0262 43.3851 23.6357 41.3502 22.2453L37.3824 19.5322C36.5006 18.9217 36.3649 18.5487 36.3649 17.9721C36.3649 16.7173 37.7215 16.5817 38.9763 16.5817C40.9094 16.5817 43.419 16.853 44.3346 16.9886C44.8773 17.0565 45.0469 16.8191 45.1147 16.3442L45.4538 14.4112C45.5556 13.8347 45.3521 13.7329 44.979 13.6312C43.1138 13.1564 41.0112 12.919 38.9763 12.919ZM73.365 17.8704C73.365 14.8182 71.9066 12.919 68.6849 12.919C66.3448 12.919 64.4456 13.4616 62.716 14.5808C62.1395 13.699 61.0204 12.919 59.0873 12.919C57.0863 12.919 55.628 13.6312 54.068 14.5468L54.2036 13.8347C54.2715 13.4616 54.068 13.1564 53.6271 13.1564H50.6766C50.3036 13.1564 49.9644 13.4616 49.8966 13.8347L46.7765 31.5716C46.7087 32.0125 46.9122 32.2838 47.3191 32.2838H50.4392C51.0497 32.2838 51.1853 31.9446 51.2531 31.5716L53.6611 17.8704C55.1871 17.1243 56.2724 16.7513 56.9846 16.7513C58.375 16.7513 58.9176 17.1243 58.9176 18.3791C58.9176 18.82 58.8838 19.3626 58.7481 20.0409L56.7133 31.5716C56.6115 32.0803 56.849 32.2838 57.2559 32.2838H60.376C60.9864 32.2838 61.1221 31.9446 61.1899 31.5716L63.2247 20.0409C63.3604 19.1931 63.4282 18.3113 63.3943 17.5991C64.7509 16.9548 66.1752 16.7513 66.8196 16.7513C68.2778 16.7513 68.8544 17.1582 68.8544 18.4808C68.8544 18.8879 68.7866 19.3965 68.6849 20.0409L66.65 31.5716C66.5821 32.0125 66.7856 32.2838 67.1927 32.2838H70.3127C70.957 32.2838 71.0588 31.9446 71.1267 31.5716L73.1615 20.0409C73.2971 19.2608 73.365 18.5487 73.365 17.8704ZM86.0486 12.919C80.5886 12.919 77.2989 16.1408 76.4172 21.4314L76.0102 23.8392C75.9085 24.5175 75.7728 25.5688 75.7728 26.5523C75.7728 30.5881 78.1806 32.555 81.3007 32.555C82.9625 32.555 84.6582 32.0803 86.5574 30.622L86.4217 31.6055C86.3539 31.9785 86.5574 32.2838 86.9643 32.2838H89.6774C90.0505 32.2838 90.4235 31.9785 90.4914 31.6055L93.4418 14.7164C93.5436 14.1059 93.3062 13.9703 92.6957 13.8007C90.6949 13.2581 88.2191 12.919 86.0486 12.919ZM88.5922 16.8191L86.7269 27.468C85.2008 28.3498 83.7765 28.8924 82.4877 28.8924C81.165 28.8924 80.1815 28.3837 80.1815 26.4506C80.1815 26.0437 80.1815 25.4332 80.3851 24.2801L80.8938 21.4314C81.3685 18.6504 82.4877 16.5817 85.4044 16.5817C86.6252 16.5817 87.9817 16.6834 88.5922 16.8191ZM107.55 13.4616C107.55 13.1564 107.448 12.919 107.007 12.919C105.583 12.919 103.786 13.0546 101.853 14.5468L101.988 13.8347C102.09 13.326 101.886 13.1564 101.412 13.1564H98.4611C97.9524 13.1564 97.7489 13.4616 97.6812 13.8347L94.561 31.5716C94.4593 32.0803 94.6967 32.2838 95.1037 32.2838H98.2238C98.8681 32.2838 98.9699 31.9446 99.0377 31.5716L101.446 17.9383C103.752 16.7851 105.244 16.7173 106.329 16.7173C106.872 16.7173 107.041 16.4121 107.109 16.039L107.55 13.5973C107.55 13.5634 107.55 13.5295 107.55 13.4616ZM114.129 9.6972C113.756 9.76499 113.417 10.0024 113.349 10.3754L112.841 13.1564H109.653C109.11 13.1564 108.94 13.4616 108.873 13.8347L108.601 15.3608C108.534 15.7338 108.669 15.9712 109.144 16.039L112.264 16.5139L110.399 27.1628C110.297 27.7732 110.229 28.3158 110.229 28.8245C110.229 31.5376 111.857 32.555 114.841 32.555C115.588 32.555 116.334 32.4533 117.182 32.3177C117.622 32.2498 117.86 32.0463 117.928 31.7072L118.301 29.5706C118.369 29.0959 118.029 29.0619 117.69 29.0619H115.893C115.045 29.0619 114.74 28.9602 114.74 28.3498C114.74 28.0784 114.808 27.6715 114.909 27.1628L116.775 16.5139H119.827C120.369 16.5139 120.573 16.2764 120.641 15.8355L120.98 13.8347C121.082 13.2581 120.776 13.1564 120.403 13.1564H117.351L117.996 9.66326C118.063 9.35804 117.86 9.08669 117.385 9.15458L114.129 9.6972Z" fill="#09327B"/>
<path d="M9.36613 19.4315C15.3601 13.4375 21.3544 7.44306 27.3485 1.44893C29.0888 -0.291341 31.9427 -0.293104 33.6846 1.44893L36.9317 4.69605L33.2875 8.38572L30.5167 5.61489L13.532 22.5995L29.8757 38.9432L26.2087 42.6102L9.36613 25.7676C7.62576 24.0272 7.62413 21.1735 9.36613 19.4315Z" fill="#E83A7A"/>
<path d="M9.464 10.7787C9.56575 10.2361 9.32832 10.1343 8.92138 10.1343H4.99814C4.42166 10.1343 4.25202 10.4057 4.18423 10.7787L0.0128413 34.654C-0.0549483 35.061 0.148521 35.3323 0.555458 35.3323H4.4786C4.85171 35.3323 5.19086 35.2306 5.29261 34.654C7.41192 22.5224 9.40725 11.1023 9.464 10.7787Z" fill="#E83A7A"/>
<path d="M41.4863 51.5511L53.8882 39.1492C54.9008 38.1366 54.9008 36.4949 53.8882 35.4822C52.8756 34.4697 51.2339 34.4697 50.2212 35.4822L38.3182 47.3852L31.8353 40.9023L28.1683 44.5692L35.1502 51.5511C36.8905 53.2915 39.7443 53.2931 41.4863 51.5511Z" fill="#00B2EB"/>
</svg>
